<svg width="512" height="512" viewBox="0 0 512 512" fill="none" xmlns="http://www.w3.org/2000/svg">
<g clip-path="url(#clip0_30_18)">
<rect width="512" height="512" fill="white"/>
<path d="M271.84 438V242.64H322.528V396.156H410.044V438H271.84Z" fill="black"/>
<path d="M245.4 301.936C217.152 297.448 192.732 291.904 172.14 285.304C151.636 278.792 134.432 271.224 120.528 262.6C106.624 253.976 95.536 244.384 87.264 233.824C78.992 223.264 73.052 211.78 69.444 199.372C65.836 186.964 64.032 173.676 64.032 159.508C64.032 136.716 67.992 117.84 75.912 102.88C83.832 87.832 94.964 76.612 109.308 69.22C123.74 61.74 140.636 58 159.996 58C179.444 58 196.34 61.74 210.684 69.22C225.116 76.612 236.292 87.744 244.212 102.616C252.132 117.4 256.092 135.968 256.092 158.32C256.092 177.944 252.748 194.928 246.06 209.272C239.372 223.616 229.384 234.704 216.096 242.536C202.896 250.28 186.308 254.152 166.332 254.152C162.812 254.152 159.204 254.02 155.508 253.756C151.812 253.492 148.028 253.096 144.156 252.568L160.524 240.292C171.26 244.34 181.776 247.816 192.072 250.72C202.456 253.536 212.708 255.912 222.828 257.848C233.036 259.784 243.332 261.368 253.716 262.6L245.4 301.936ZM159.996 217.984C169.412 217.984 177.376 215.96 183.888 211.912C190.488 207.864 195.504 201.528 198.936 192.904C202.368 184.28 204.084 173.06 204.084 159.244C204.084 144.812 202.324 133.152 198.804 124.264C195.372 115.376 190.356 108.908 183.756 104.86C177.156 100.724 169.236 98.656 159.996 98.656C150.756 98.656 142.836 100.68 136.236 104.728C129.724 108.688 124.708 114.98 121.188 123.604C117.668 132.228 115.908 143.492 115.908 157.396C115.908 172.004 117.624 183.752 121.056 192.64C124.488 201.44 129.46 207.864 135.972 211.912C142.572 215.96 150.58 217.984 159.996 217.984Z" fill="black"/>
</g>
<defs>
<clipPath id="clip0_30_18">
<rect width="512" height="512" fill="white"/>
</clipPath>
</defs>
</svg>
